<?xml version="1.0" ?><svg width="64px" height="64px" viewBox="0 0 64 64" xmlns="http://www.w3.org/2000/svg"><defs><style>.cls-1{fill:#603813;}.cls-2{fill:#806042;}.cls-3{fill:#fccb7e;}.cls-4{fill:#fdd598;}.cls-5{fill:#aa7b50;}.cls-6{fill:#bb9573;}.cls-7{fill:#8cc63f;}.cls-8{fill:#a3d165;}.cls-9{fill:red;}.cls-10{fill:#f55;}.cls-11{fill:#f7ba6f;}.cls-12{fill:#f8c88c;}.cls-13{fill:#d49f5f;}</style></defs><title/><g data-name="Layer 25" id="Layer_25"><path class="cls-1" d="M57,42H7A5,5,0,0,0,7,52H57a5,5,0,0,0,0-10Z"/><path class="cls-2" d="M57,42H55a5,5,0,0,1,0,10h2a5,5,0,0,0,0-10Z"/><path class="cls-3" d="M61.1,38.152A3.509,3.509,0,0,0,58.5,37H5.643a3.609,3.609,0,0,0-3.625,3.143A3.5,3.5,0,0,0,5.5,44H44.586l3.293,3.293a3,3,0,0,0,4.242,0L55.414,44h2.943a3.61,3.61,0,0,0,3.625-3.143A3.514,3.514,0,0,0,61.1,38.152Z"/><path class="cls-4" d="M61.98,40.86A3.6,3.6,0,0,1,58.36,44h-2a3.6,3.6,0,0,0,3.62-3.14A3.488,3.488,0,0,0,56.5,37h2a3.488,3.488,0,0,1,3.48,3.86Z"/><path class="cls-5" d="M57.032,29.164l-50-.328a5,5,0,0,0-.065,10l50,.328a5,5,0,0,0,.065-10Z"/><path class="cls-6" d="M57.032,29.164h-2a4.994,4.994,0,0,1,.065,9.988l1.87.012a5,5,0,0,0,.065-10Z"/><path class="cls-7" d="M61.418,25.243a2.947,2.947,0,0,0-2.82-2.126H5.4a2.948,2.948,0,0,0-2.82,2.125A11.045,11.045,0,0,0,2,27.983a3.892,3.892,0,0,0,6.8,2.594,3.872,3.872,0,0,0,5.8,0,3.871,3.871,0,0,0,5.8,0,3.872,3.872,0,0,0,5.8,0,3.872,3.872,0,0,0,5.8,0,3.872,3.872,0,0,0,5.8,0,3.872,3.872,0,0,0,5.8,0,3.871,3.871,0,0,0,5.8,0,3.872,3.872,0,0,0,5.8,0A3.892,3.892,0,0,0,62,27.983,11.033,11.033,0,0,0,61.418,25.243Z"/><path class="cls-8" d="M61.418,25.126A2.947,2.947,0,0,0,58.6,23H57.381a2.943,2.943,0,0,1,2.037,2.009A11.027,11.027,0,0,1,60,27.75a3.9,3.9,0,0,1-3.078,3.809,3.813,3.813,0,0,0,1.178.208,3.905,3.905,0,0,0,3.9-3.9A11.027,11.027,0,0,0,61.418,25.126Z"/><path class="cls-9" d="M58.5,18H5.5a3.5,3.5,0,0,0,0,7h53a3.5,3.5,0,0,0,0-7Z"/><path class="cls-10" d="M58.5,18h-2a3.5,3.5,0,0,1,0,7h2a3.5,3.5,0,0,0,0-7Z"/><path class="cls-11" d="M59.959,6.406C41.406-2.1,22.593-2.1,4.041,6.406A6.986,6.986,0,0,0,0,12.755V13a7.008,7.008,0,0,0,7,7H57a7.008,7.008,0,0,0,7-7v-.245A6.986,6.986,0,0,0,59.959,6.406Z"/><path class="cls-12" d="M59.959,6.406A66.2,66.2,0,0,0,30.5.068,67,67,0,0,1,56.959,6.406,6.986,6.986,0,0,1,61,12.755V13a7.008,7.008,0,0,1-7,7h3a7.008,7.008,0,0,0,7-7v-.245A6.986,6.986,0,0,0,59.959,6.406Z"/><path class="cls-13" d="M18,10H16a1,1,0,0,1,0-2h2a1,1,0,0,1,0,2Z"/><path class="cls-13" d="M20,16H18a1,1,0,0,1,0-2h2a1,1,0,0,1,0,2Z"/><path class="cls-13" d="M12,13H10a1,1,0,0,1,0-2h2a1,1,0,0,1,0,2Z"/><path class="cls-13" d="M32,10H30a1,1,0,0,1,0-2h2a1,1,0,0,1,0,2Z"/><path class="cls-13" d="M34,16H32a1,1,0,0,1,0-2h2a1,1,0,0,1,0,2Z"/><path class="cls-13" d="M26,13H24a1,1,0,0,1,0-2h2a1,1,0,0,1,0,2Z"/><path class="cls-13" d="M46,10H44a1,1,0,0,1,0-2h2a1,1,0,0,1,0,2Z"/><path class="cls-13" d="M48,16H46a1,1,0,0,1,0-2h2a1,1,0,0,1,0,2Z"/><path class="cls-13" d="M40,13H38a1,1,0,0,1,0-2h2a1,1,0,0,1,0,2Z"/><path class="cls-13" d="M27,6H25a1,1,0,0,1,0-2h2a1,1,0,0,1,0,2Z"/><path class="cls-13" d="M41,6H39a1,1,0,0,1,0-2h2a1,1,0,0,1,0,2Z"/><path class="cls-13" d="M54,13H52a1,1,0,0,1,0-2h2a1,1,0,0,1,0,2Z"/><path class="cls-11" d="M57,50H7A7,7,0,0,0,7,64H57a7,7,0,0,0,0-14Z"/><path class="cls-12" d="M57,50H55a7,7,0,0,1,0,14h2a7,7,0,0,0,0-14Z"/><path class="cls-13" d="M11,60H9a1,1,0,0,1,0-2h2a1,1,0,0,1,0,2Z"/><path class="cls-13" d="M29,56H27a1,1,0,0,1,0-2h2a1,1,0,0,1,0,2Z"/><path class="cls-13" d="M53,60H51a1,1,0,0,1,0-2h2a1,1,0,0,1,0,2Z"/></g></svg>