<?xml version="1.0" ?><!DOCTYPE svg  PUBLIC '-//W3C//DTD SVG 1.1//EN'  'http://www.w3.org/Graphics/SVG/1.1/DTD/svg11.dtd'><svg width="32px" height="32px" viewBox="0 0 32 32" style="fill-rule:evenodd;clip-rule:evenodd;stroke-linejoin:round;stroke-miterlimit:1.41421;" version="1.1" xml:space="preserve" xmlns="http://www.w3.org/2000/svg" xmlns:serif="http://www.serif.com/" xmlns:xlink="http://www.w3.org/1999/xlink"><rect height="32" id="Achievement" style="fill:none;" width="32" x="0" y="0"/><path d="M11.712,19.395c-0.003,0.109 -0.024,0.217 -0.062,0.318c-0.092,0.245 -0.285,0.451 -0.523,0.559c-0.298,0.135 -0.663,0.111 -0.941,-0.062c-0.084,-0.052 -0.159,-0.116 -0.224,-0.19c-0.058,-0.065 -0.067,-0.086 -0.114,-0.159l-7.714,-13.361c-0.015,-0.029 -0.031,-0.057 -0.045,-0.087c-0.148,-0.327 -0.104,-0.733 0.118,-1.022c0.059,-0.078 0.131,-0.147 0.211,-0.204c0.026,-0.019 0.055,-0.035 0.082,-0.053l5.196,-3c0.029,-0.015 0.058,-0.031 0.087,-0.045c0.06,-0.027 0.122,-0.048 0.186,-0.063c0.085,-0.02 0.108,-0.018 0.194,-0.025c0.033,0 0.066,0.001 0.099,0.001c0.086,0.01 0.109,0.009 0.193,0.032c0.19,0.051 0.363,0.159 0.493,0.307c0.058,0.065 0.067,0.086 0.114,0.159l6.938,12.017l6.938,-12.017c0.047,-0.073 0.056,-0.094 0.114,-0.159c0.173,-0.197 0.425,-0.322 0.686,-0.339c0.066,-0.004 0.131,0.001 0.196,0.007c0.086,0.015 0.109,0.016 0.191,0.044c0.083,0.028 0.101,0.041 0.179,0.081l5.196,3c0.027,0.018 0.056,0.034 0.082,0.053c0.318,0.228 0.483,0.651 0.392,1.04c-0.015,0.064 -0.036,0.126 -0.063,0.186c-0.014,0.03 -0.03,0.058 -0.045,0.087l-7.67,13.285c-0.018,0.027 -0.034,0.056 -0.053,0.082c-0.228,0.318 -0.651,0.482 -1.04,0.392c-0.255,-0.06 -0.484,-0.224 -0.622,-0.446c-0.079,-0.126 -0.127,-0.27 -0.143,-0.418l-8.626,0Z" style="fill:#039be5;"/><path d="M16,14.517l6.938,-12.017c0.047,-0.073 0.056,-0.094 0.114,-0.159c0.173,-0.197 0.425,-0.322 0.686,-0.339c0.066,-0.004 0.131,0.001 0.196,0.007c0.086,0.015 0.109,0.016 0.191,0.044c0.083,0.028 0.101,0.041 0.179,0.081l5.196,3c0.027,0.018 0.056,0.034 0.082,0.053c0.318,0.228 0.483,0.651 0.392,1.04c-0.015,0.064 -0.036,0.126 -0.063,0.186c-0.014,0.03 -0.03,0.058 -0.045,0.087l-7.67,13.285c-0.018,0.027 -0.034,0.056 -0.053,0.082c-0.228,0.318 -0.651,0.482 -1.04,0.392c-0.255,-0.06 -0.484,-0.224 -0.622,-0.446c-0.079,-0.126 -0.127,-0.27 -0.143,-0.418l-4.338,0l0,-4.878Z" style="fill:#0277bd;"/><circle cx="16" cy="23" r="6" style="fill:#fbc02d;"/><path d="M16,17c3.311,0 6,2.689 6,6c0,3.311 -2.689,6 -6,6l0,-12Z" style="fill:#f57f17;"/><path d="M16.011,16c0.97,0.002 1.943,0.207 2.831,0.602c1.467,0.653 2.695,1.826 3.415,3.259c0.633,1.259 0.87,2.712 0.677,4.105c-0.159,1.145 -0.608,2.247 -1.295,3.18c-0.867,1.177 -2.105,2.074 -3.507,2.523c-1.566,0.5 -3.308,0.427 -4.827,-0.208c-1.197,-0.5 -2.247,-1.34 -3,-2.392c-0.837,-1.168 -1.298,-2.599 -1.305,-4.035c-0.005,-1.128 0.265,-2.257 0.786,-3.258c0.729,-1.402 1.948,-2.546 3.392,-3.183c0.888,-0.392 1.86,-0.594 2.833,-0.593Zm-0.019,2c-0.965,0.002 -1.929,0.289 -2.736,0.82c-1.098,0.724 -1.896,1.891 -2.157,3.187c-0.212,1.051 -0.078,2.169 0.384,3.138c0.601,1.261 1.751,2.252 3.097,2.65c1.087,0.322 2.28,0.262 3.33,-0.173c1.128,-0.467 2.072,-1.361 2.6,-2.463c0.563,-1.171 0.644,-2.564 0.215,-3.798c-0.359,-1.033 -1.068,-1.939 -1.981,-2.541c-0.77,-0.506 -1.684,-0.793 -2.606,-0.818c-0.049,-0.001 -0.098,-0.002 -0.146,-0.002Z" style="fill:#ffeb3b;fill-rule:nonzero;"/><path d="M16,16l0.011,0c0.97,0.002 1.943,0.207 2.831,0.602c1.467,0.653 2.695,1.826 3.415,3.259c0.633,1.259 0.87,2.712 0.677,4.105c-0.159,1.145 -0.608,2.247 -1.295,3.18c-0.867,1.177 -2.105,2.074 -3.507,2.523c-0.688,0.22 -1.41,0.329 -2.132,0.328l0,-1.998c0.652,0 1.305,-0.127 1.91,-0.377c1.128,-0.467 2.072,-1.361 2.6,-2.463c0.563,-1.171 0.644,-2.564 0.215,-3.798c-0.359,-1.033 -1.068,-1.939 -1.981,-2.541c-0.77,-0.506 -1.684,-0.793 -2.606,-0.818c-0.046,-0.001 -0.092,-0.002 -0.138,-0.002l0,-2Z" style="fill:#fbc02d;fill-rule:nonzero;"/><path d="M15,22.654c-0.027,-0.009 -0.054,-0.018 -0.081,-0.029c-0.304,-0.126 -0.539,-0.41 -0.601,-0.737c-0.059,-0.308 0.037,-0.641 0.252,-0.871c0.01,-0.011 0.012,-0.013 0.023,-0.024l0.707,-0.707c0.186,-0.183 0.436,-0.29 0.695,-0.293c0.011,0 0.022,0 0.033,0c0.015,0.001 0.019,0.001 0.034,0.001c0.346,0.019 0.675,0.232 0.835,0.542c0.089,0.174 0.124,0.374 0.103,0.568l0,2.896c0.009,0 0.019,0 0.028,0c0.025,0.001 0.031,0.001 0.056,0.004c0.373,0.031 0.716,0.286 0.85,0.639c0.133,0.348 0.053,0.769 -0.207,1.044c-0.187,0.197 -0.452,0.309 -0.727,0.313l-2,0c-0.301,-0.004 -0.596,-0.143 -0.782,-0.377c-0.221,-0.277 -0.28,-0.673 -0.142,-1.006c0.097,-0.233 0.285,-0.427 0.516,-0.53c0.128,-0.057 0.268,-0.085 0.408,-0.087l0,-1.346Z" style="fill:#ffeb3b;fill-rule:nonzero;"/><path d="M16,19.993c0.009,0 0.019,0 0.028,0c0.015,0.001 0.019,0.001 0.034,0.001c0.346,0.019 0.675,0.232 0.835,0.542c0.089,0.174 0.124,0.374 0.103,0.568l0,2.896c0.009,0 0.019,0 0.028,0c0.025,0.001 0.031,0.001 0.056,0.004c0.373,0.031 0.716,0.286 0.85,0.639c0.133,0.348 0.053,0.769 -0.207,1.044c-0.186,0.197 -0.452,0.309 -0.727,0.313l-1,0l0,-6.007Z" style="fill:#fbc02d;fill-rule:nonzero;"/></svg>