<?xml version="1.0" encoding="iso-8859-1"?>
<!-- Generator: Adobe Illustrator 19.0.0, SVG Export Plug-In . SVG Version: 6.00 Build 0)  -->
<svg version="1.1" id="Layer_1" xmlns="http://www.w3.org/2000/svg" xmlns:xlink="http://www.w3.org/1999/xlink" x="0px" y="0px"
	 viewBox="0 0 512 512" style="enable-background:new 0 0 512 512;" xml:space="preserve">
<path style="fill:#E87E04;" d="M205.067,487.888H96.726c-10.671,0-19.321-8.651-19.321-19.321v-89.818
	c0-10.671,8.651-19.321,19.321-19.321h108.341c10.671,0,19.321,8.651,19.321,19.321v89.818
	C224.388,479.237,215.739,487.888,205.067,487.888z"/>
<path style="fill:#F2C500;" d="M307.367,487.888h-102.3c-10.671,0-19.321-8.651-19.321-19.321V398.07H77.405V243.654
	c0-6.112,2.884-11.865,7.793-15.506c3.533-2.62,159.005-117.258,159.571-117.674c6.82-5.018,16.118-5.008,22.929,0.024
	c0,0,159.368,117.525,159.475,117.604c4.94,3.641,7.856,9.415,7.856,15.551v154.416H326.688v70.497
	C326.688,479.237,318.039,487.888,307.367,487.888z M183.443,156C183.443,156,183.441,156,183.443,156
	C183.441,156,183.441,156,183.443,156z M183.483,155.978c-0.003,0.001-0.004,0.001-0.005,0.003
	C183.479,155.98,183.481,155.979,183.483,155.978z M183.52,155.96c-0.004,0.003-0.008,0.005-0.013,0.006
	C183.512,155.964,183.516,155.962,183.52,155.96z M183.561,155.939c-0.005,0.003-0.01,0.005-0.015,0.008
	C183.551,155.944,183.556,155.942,183.561,155.939z M183.596,155.921c-0.006,0.003-0.013,0.006-0.019,0.009
	C183.584,155.926,183.591,155.924,183.596,155.921z M183.632,155.903c-0.004,0.003-0.009,0.004-0.013,0.006
	C183.623,155.907,183.627,155.906,183.632,155.903z M234.501,118.103L234.501,118.103L234.501,118.103z M234.527,118.086
	c-0.004,0.003-0.008,0.004-0.01,0.006C234.519,118.091,234.523,118.089,234.527,118.086z M234.551,118.071
	c-0.005,0.003-0.009,0.006-0.014,0.009C234.541,118.077,234.546,118.075,234.551,118.071z M234.577,118.055
	c-0.006,0.003-0.012,0.006-0.018,0.01C234.564,118.062,234.571,118.058,234.577,118.055z M234.607,118.036
	c-0.008,0.005-0.015,0.01-0.023,0.015C234.59,118.046,234.598,118.041,234.607,118.036z"/>
<path style="fill:#D55400;" d="M415.708,487.888H307.367c-10.671,0-19.321-8.651-19.321-19.321v-89.818
	c0-10.671,8.651-19.321,19.321-19.321h108.341c10.671,0,19.321,8.651,19.321,19.321v89.818
	C435.029,479.237,426.378,487.888,415.708,487.888z"/>
<path style="fill:#F2C500;" d="M234.5,118.104L234.5,118.104L234.5,118.104z M234.515,118.094c0.004-0.003,0.006-0.004,0.01-0.006
	C234.523,118.089,234.519,118.091,234.515,118.094z M234.536,118.08c0.005-0.003,0.009-0.006,0.014-0.009
	C234.546,118.075,234.541,118.077,234.536,118.08z M234.559,118.066c0.005-0.004,0.012-0.008,0.018-0.01
	C234.571,118.058,234.564,118.062,234.559,118.066z M234.582,118.051c0.008-0.005,0.015-0.01,0.023-0.015
	C234.598,118.041,234.59,118.046,234.582,118.051z"/>
<path style="fill:#F59D00;" d="M427.174,228.103c-0.107-0.079-159.475-117.604-159.475-117.604c-3.46-2.556-7.56-3.809-11.651-3.774
	v381.163h51.319c10.67,0,19.321-8.651,19.321-19.321V398.07h108.341V243.654C435.029,237.516,432.114,231.744,427.174,228.103z"/>
<path style="fill:#E87E04;" d="M23.29,182.348L222.903,35.135c19.928-14.697,46.707-14.698,66.637,0l199.611,147.211
	c43.544,32.12,20.661,101.305-33.343,101.305c-23.32,0-13.968,3.281-199.586-133.607L89.916,272.69
	C29.907,316.987-36.121,226.171,23.29,182.348z"/>
<path style="fill:#D55400;" d="M489.151,182.346L289.54,35.135c-10.014-7.385-21.756-11.057-33.49-11.021v126.057l0.173-0.128
	c183.61,135.409,175.522,133.608,199.585,133.608C509.915,283.652,532.611,214.404,489.151,182.346z"/>
<g>
	<path style="fill:#58595B;" d="M326.688,487.888H185.746V307.595c0-10.671,8.651-19.321,19.321-19.321h102.3
		c10.671,0,19.321,8.651,19.321,19.321V487.888z"/>
	<path style="fill:#58595B;" d="M307.371,256.981h-102.3c-10.671,0-19.321-8.651-19.321-19.321s8.651-19.321,19.321-19.321h102.3
		c10.671,0,19.321,8.651,19.321,19.321S318.041,256.981,307.371,256.981z"/>
</g>
<g>
	<path style="fill:#414042;" d="M326.688,307.595c0-10.671-8.651-19.321-19.321-19.321h-51.319v199.615h70.64V307.595z"/>
	<path style="fill:#414042;" d="M307.371,218.337h-51.323v38.643h51.323c10.671,0,19.321-8.651,19.321-19.321
		C326.692,226.987,318.041,218.337,307.371,218.337z"/>
</g>
<g>
</g>
<g>
</g>
<g>
</g>
<g>
</g>
<g>
</g>
<g>
</g>
<g>
</g>
<g>
</g>
<g>
</g>
<g>
</g>
<g>
</g>
<g>
</g>
<g>
</g>
<g>
</g>
<g>
</g>
</svg>
