<svg width="331" height="68" viewBox="0 0 331 68" fill="none" xmlns="http://www.w3.org/2000/svg">
<path d="M147.384 56.32C148.579 50.304 149.731 44.4373 150.84 38.72C151.267 36.3307 151.715 33.8347 152.184 31.232C152.696 28.5867 153.165 26.0053 153.592 23.488C154.019 20.928 154.403 18.4747 154.744 16.128C155.128 13.7387 155.427 11.5627 155.64 9.6C156.963 9.51466 158.243 9.42933 159.48 9.344C160.589 9.25867 161.72 9.19467 162.872 9.152C164.024 9.06666 165.048 8.98133 165.944 8.896C166.499 12.1813 166.989 15.3173 167.416 18.304C167.629 19.584 167.843 20.928 168.056 22.336C168.312 23.7013 168.547 25.024 168.76 26.304C168.973 27.584 169.187 28.8213 169.4 30.016C169.613 31.168 169.827 32.192 170.04 33.088C170.211 32.192 170.403 31.168 170.616 30.016C170.829 28.8213 171.064 27.584 171.32 26.304C171.576 24.9813 171.832 23.6373 172.088 22.272C172.387 20.9067 172.664 19.584 172.92 18.304C173.56 15.3173 174.221 12.2027 174.904 8.96L182.712 8C181.261 14.4 179.981 20.4587 178.872 26.176C178.36 28.6507 177.848 31.1467 177.336 33.664C176.867 36.1813 176.419 38.6133 175.992 40.96C175.565 43.3067 175.203 45.4827 174.904 47.488C174.605 49.4507 174.371 51.1147 174.2 52.48C174.072 52.48 173.56 52.5867 172.664 52.8C171.811 52.9707 170.808 53.184 169.656 53.44C168.547 53.696 167.416 53.9733 166.264 54.272C165.155 54.528 164.323 54.7413 163.768 54.912C163.469 51.456 163.149 48.1707 162.808 45.056C162.68 43.7333 162.531 42.368 162.36 40.96C162.189 39.552 162.019 38.208 161.848 36.928C161.72 35.648 161.571 34.4533 161.4 33.344C161.272 32.192 161.144 31.232 161.016 30.464C160.888 31.232 160.717 32.1707 160.504 33.28C160.291 34.3893 160.077 35.584 159.864 36.864C159.651 38.1013 159.437 39.4027 159.224 40.768C159.011 42.0907 158.776 43.392 158.52 44.672C157.965 47.7013 157.368 50.8587 156.728 54.144L147.384 56.32ZM176.576 56.128C177.685 50.24 178.773 44.4587 179.84 38.784C180.224 36.3947 180.651 33.92 181.12 31.36C181.589 28.7573 182.037 26.1973 182.464 23.68C182.891 21.1627 183.296 18.7307 183.68 16.384C184.064 13.9947 184.405 11.8187 184.704 9.856L195.072 9.152C194.347 12.1387 193.621 15.2533 192.896 18.496C192.213 21.7387 191.573 24.896 190.976 27.968L197.312 27.264C197.909 24.2347 198.443 21.312 198.912 18.496C199.381 15.6373 200 12.6933 200.768 9.664C201.749 9.49333 202.837 9.36533 204.032 9.28C205.227 9.152 206.336 9.04533 207.36 8.96C208.384 8.87466 209.237 8.81066 209.92 8.768C210.645 8.68267 211.008 8.64 211.008 8.64C210.411 10.56 209.835 12.672 209.28 14.976C208.768 17.2373 208.256 19.6053 207.744 22.08C207.232 24.512 206.741 26.9867 206.272 29.504C205.803 32.0213 205.376 34.4107 204.992 36.672C204.053 42.0907 203.179 47.6373 202.368 53.312L192.384 54.464C192.939 51.904 193.429 49.408 193.856 46.976C194.283 44.928 194.709 42.7947 195.136 40.576C195.605 38.3573 195.968 36.4587 196.224 34.88L190.016 35.456C189.717 37.0773 189.355 38.9547 188.928 41.088C188.544 43.2213 188.181 45.248 187.84 47.168C187.371 49.472 186.901 51.776 186.432 54.08L176.576 56.128ZM222.617 38.976C222.233 40.8533 221.763 42.816 221.208 44.864C220.654 46.8693 219.907 48.704 218.969 50.368C218.073 51.9893 216.963 53.3547 215.641 54.464C214.361 55.5307 212.825 56.064 211.033 56.064C209.838 56.064 208.537 55.808 207.129 55.296C205.763 54.784 204.248 53.9093 202.584 52.672L207.001 42.816C207.214 43.2427 207.619 43.6267 208.217 43.968C208.857 44.2667 209.539 44.416 210.265 44.416C210.777 44.416 211.225 43.9893 211.609 43.136C212.035 42.2827 212.398 41.3013 212.697 40.192C212.995 39.04 213.23 37.8667 213.401 36.672C213.571 35.4773 213.699 34.5173 213.785 33.792C214.595 29.6533 215.363 25.536 216.089 21.44C216.814 17.3013 217.667 13.184 218.649 9.088C220.569 8.91733 222.446 8.66133 224.281 8.32C226.158 7.936 228.035 7.488 229.913 6.976C229.273 9.152 228.611 11.6267 227.929 14.4C227.246 17.1733 226.585 20.0107 225.945 22.912C225.305 25.8133 224.686 28.672 224.089 31.488C223.534 34.2613 223.043 36.7573 222.617 38.976ZM222.7 56.064L231.084 10.56L251.308 8.832C251.009 9.77066 250.753 10.7307 250.54 11.712C250.326 12.5227 250.113 13.376 249.9 14.272C249.729 15.1253 249.58 15.8933 249.452 16.576C249.025 16.6187 248.406 16.6613 247.596 16.704C246.828 16.704 245.996 16.7253 245.1 16.768C244.204 16.768 243.286 16.768 242.348 16.768C241.452 16.768 240.662 16.768 239.98 16.768L237.74 28.224C239.062 28.1387 240.3 28.0747 241.452 28.032C242.39 27.9893 243.35 27.968 244.332 27.968C245.313 27.968 246.038 27.9467 246.508 27.904C246.337 29.0987 246.166 30.272 245.996 31.424C245.868 32.576 245.697 33.7493 245.484 34.944C245.057 34.9867 244.353 35.0293 243.372 35.072C242.433 35.072 241.473 35.0933 240.492 35.136C239.382 35.1787 238.166 35.2213 236.844 35.264L234.668 47.04L244.012 45.568L243.372 52.864L222.7 56.064ZM244.256 56.064C245.408 50.3893 246.517 44.8427 247.584 39.424C247.968 37.12 248.395 34.7307 248.864 32.256C249.333 29.7387 249.76 27.264 250.144 24.832C250.571 22.3573 250.955 19.9893 251.296 17.728C251.68 15.424 251.979 13.3333 252.192 11.456C254.624 10.688 257.248 10.1333 260.064 9.792C262.88 9.408 265.675 9.216 268.448 9.216C270.112 9.216 271.477 9.408 272.544 9.792C273.653 10.176 274.507 10.7307 275.104 11.456C275.744 12.1387 276.192 12.9493 276.448 13.888C276.704 14.8267 276.832 15.872 276.832 17.024C276.832 18.7307 276.533 20.416 275.936 22.08C275.339 23.7013 274.528 25.2587 273.504 26.752C272.523 28.2027 271.371 29.5467 270.048 30.784C268.768 31.9787 267.381 32.96 265.888 33.728C266.656 35.4347 267.467 37.312 268.32 39.36C269.216 41.3653 270.048 43.2853 270.816 45.12C271.669 47.2533 272.544 49.3867 273.44 51.52L263.52 54.976C262.667 52.032 261.899 49.2587 261.216 46.656C260.917 45.5893 260.619 44.5013 260.32 43.392C260.021 42.24 259.744 41.1733 259.488 40.192C259.232 39.168 259.019 38.272 258.848 37.504C258.677 36.736 258.571 36.1387 258.528 35.712L257.696 35.968C257.44 37.3333 257.12 38.9973 256.736 40.96C256.395 42.9227 256.075 44.8213 255.776 46.656C255.392 48.832 255.008 51.072 254.624 53.376L244.256 56.064ZM259.296 28.288C260.107 28.2027 261.088 27.8613 262.24 27.264C263.435 26.6667 264.565 25.9627 265.632 25.152C266.699 24.2987 267.616 23.424 268.384 22.528C269.152 21.632 269.536 20.8427 269.536 20.16C269.536 19.6907 269.387 19.328 269.088 19.072C268.789 18.7733 268.363 18.56 267.808 18.432C267.296 18.2613 266.72 18.1547 266.08 18.112C265.44 18.0693 264.779 18.048 264.096 18.048C263.627 18.048 263.136 18.0693 262.624 18.112C262.155 18.112 261.728 18.112 261.344 18.112L259.296 28.288ZM272.822 56.32C274.016 50.304 275.168 44.4373 276.278 38.72C276.704 36.3307 277.152 33.8347 277.622 31.232C278.134 28.5867 278.603 26.0053 279.03 23.488C279.456 20.928 279.84 18.4747 280.182 16.128C280.566 13.7387 280.864 11.5627 281.078 9.6C282.4 9.51466 283.68 9.42933 284.918 9.344C286.027 9.25867 287.158 9.19467 288.31 9.152C289.462 9.06666 290.486 8.98133 291.382 8.896C291.936 12.1813 292.427 15.3173 292.854 18.304C293.067 19.584 293.28 20.928 293.494 22.336C293.75 23.7013 293.984 25.024 294.198 26.304C294.411 27.584 294.624 28.8213 294.838 30.016C295.051 31.168 295.264 32.192 295.478 33.088C295.648 32.192 295.84 31.168 296.054 30.016C296.267 28.8213 296.502 27.584 296.758 26.304C297.014 24.9813 297.27 23.6373 297.526 22.272C297.824 20.9067 298.102 19.584 298.358 18.304C298.998 15.3173 299.659 12.2027 300.342 8.96L308.15 8C306.699 14.4 305.419 20.4587 304.31 26.176C303.798 28.6507 303.286 31.1467 302.774 33.664C302.304 36.1813 301.856 38.6133 301.43 40.96C301.003 43.3067 300.64 45.4827 300.342 47.488C300.043 49.4507 299.808 51.1147 299.638 52.48C299.51 52.48 298.998 52.5867 298.102 52.8C297.248 52.9707 296.246 53.184 295.094 53.44C293.984 53.696 292.854 53.9733 291.702 54.272C290.592 54.528 289.76 54.7413 289.206 54.912C288.907 51.456 288.587 48.1707 288.246 45.056C288.118 43.7333 287.968 42.368 287.798 40.96C287.627 39.552 287.456 38.208 287.286 36.928C287.158 35.648 287.008 34.4533 286.838 33.344C286.71 32.192 286.582 31.232 286.454 30.464C286.326 31.232 286.155 32.1707 285.942 33.28C285.728 34.3893 285.515 35.584 285.302 36.864C285.088 38.1013 284.875 39.4027 284.662 40.768C284.448 42.0907 284.214 43.392 283.958 44.672C283.403 47.7013 282.806 50.8587 282.166 54.144L272.822 56.32ZM301.95 56.064L310.334 10.56L330.558 8.832C330.259 9.77066 330.003 10.7307 329.79 11.712C329.576 12.5227 329.363 13.376 329.15 14.272C328.979 15.1253 328.83 15.8933 328.702 16.576C328.275 16.6187 327.656 16.6613 326.846 16.704C326.078 16.704 325.246 16.7253 324.35 16.768C323.454 16.768 322.536 16.768 321.598 16.768C320.702 16.768 319.912 16.768 319.23 16.768L316.99 28.224C318.312 28.1387 319.55 28.0747 320.702 28.032C321.64 27.9893 322.6 27.968 323.582 27.968C324.563 27.968 325.288 27.9467 325.758 27.904C325.587 29.0987 325.416 30.272 325.246 31.424C325.118 32.576 324.947 33.7493 324.734 34.944C324.307 34.9867 323.603 35.0293 322.622 35.072C321.683 35.072 320.723 35.0933 319.742 35.136C318.632 35.1787 317.416 35.2213 316.094 35.264L313.918 47.04L323.262 45.568L322.622 52.864L301.95 56.064Z" fill="black"/>
<path d="M100.573 38.7397C102.314 35.6744 103.525 33.1573 104.336 30.9164L104.66 30.0262L103.713 29.9999C103.288 29.9867 102.748 29.9824 102.161 29.9824C101.332 29.9824 100.398 29.9911 99.5603 30.0043C101.157 28.9781 103.222 27.6231 104.02 26.9741L104.897 26.2637L103.862 25.8164C102.007 25.0139 98.6087 24.0491 96.1355 23.3957L105.274 21.6241L103.989 20.6988C103.932 20.655 99.3893 17.3748 96.5608 15.3006C99.3411 15.4541 103.174 15.647 104.586 15.6558L105.586 15.6602L105.23 14.7261C104.577 13.0027 103.231 10.2795 102.336 8.51661C104.481 9.43313 108.081 10.8934 110.423 11.4547L111.229 11.6477L111.265 10.8145C111.304 9.86288 111.058 7.46854 110.835 5.56096C111.992 7.11334 113.488 9.0253 114.303 9.68309L114.891 10.1611L115.308 9.5296C116.487 7.73165 118.395 5.30223 119.311 4.15768C120.311 5.3724 122.478 8.04301 123.754 9.93304L124.157 10.5251L124.732 10.0953C125.626 9.42874 127.464 7.59133 128.845 6.16612C128.468 7.78866 128.064 9.76202 128.056 10.6435L128.047 11.5293L128.906 11.3144C131.296 10.718 135.975 8.2228 138.554 6.78883L134.002 17.1468L141.33 16.5416C139.492 17.4888 137.405 18.6158 136.677 19.2078L135.8 19.9226L136.835 20.3699C138.905 21.2645 142.281 22.6678 144.224 23.4703C142.176 24.3517 138.514 25.9304 136.344 26.8995L135.37 27.3337L136.168 28.0397C137.045 28.8203 138.041 29.6447 139.177 30.5437C137.747 30.4779 136.453 30.4428 135.252 30.434L134.252 30.4297L134.607 31.3637C135.414 33.4949 136.572 35.8673 138.203 38.7441C134.327 37.2838 131.165 36.2796 128.358 35.6086L127.551 35.4157L127.521 36.1568C126.951 36.7926 122.692 38.0073 118.724 38.0073C115.838 38.0073 115.167 37.3408 115.027 37.1347L114.624 36.5383L114.049 36.968C113.703 37.2268 113.203 37.3671 112.637 37.3671C111.94 37.3671 111.243 37.1391 110.905 36.797C110.716 36.6085 110.716 36.4594 110.721 36.4111L110.73 35.5253L109.87 35.7402C107.208 36.4023 104.217 37.3671 100.573 38.7397Z" fill="#F15A24"/>
<path d="M119.311 5.23647C120.412 6.58713 122.114 8.72712 123.179 10.3014L123.982 11.4898L125.131 10.6347C125.727 10.1918 126.696 9.27966 127.683 8.30175C127.503 9.24897 127.372 10.1085 127.367 10.6391L127.35 12.4107L129.069 11.981C131.042 11.4898 134.484 9.76642 137.116 8.35438L133.835 15.8181L132.91 17.9274L135.204 17.7388L138.102 17.4976C137.291 17.9581 136.616 18.379 136.243 18.6816L134.493 20.1068L136.567 21.0014C138.177 21.6943 140.567 22.6941 142.465 23.4835C140.422 24.3649 137.782 25.5094 136.067 26.2725L134.12 27.1407L135.717 28.5528C136.164 28.9475 136.642 29.3597 137.151 29.7807C136.493 29.7631 135.866 29.75 135.261 29.7456L133.261 29.7324L133.971 31.6005C134.633 33.3502 135.528 35.2534 136.716 37.4592C133.581 36.3278 130.924 35.5122 128.525 34.9377L126.907 34.5518L126.854 35.7884C125.837 36.3717 122.14 37.3189 118.728 37.3189C116.54 37.3189 115.716 36.8935 115.602 36.7488L114.799 35.5604L113.65 36.4155C113.426 36.5822 113.058 36.6786 112.646 36.6786C112.001 36.6786 111.55 36.455 111.414 36.3278L111.431 34.6395L109.712 35.0693C107.454 35.635 104.972 36.4068 102.069 37.4548C103.358 35.0649 104.305 33.0126 104.98 31.1445L105.629 29.3597L103.731 29.3071C103.332 29.2939 102.801 29.2895 102.161 29.2895C102.073 29.2895 101.985 29.2895 101.898 29.2895C102.959 28.5879 103.946 27.9082 104.45 27.5003L106.2 26.0751L104.125 25.1805C102.889 24.6455 100.99 24.0448 99.1218 23.5054L103.84 22.5889L106.949 21.9837L104.384 20.1287C104.336 20.0937 101.428 17.9931 98.8192 16.0943C101.121 16.2127 103.516 16.3224 104.573 16.3267L106.572 16.3399L105.862 14.4718C105.38 13.2045 104.538 11.4153 103.766 9.84974C105.844 10.6961 108.419 11.6696 110.252 12.1081L111.87 12.494L111.94 10.832C111.966 10.2313 111.887 9.11302 111.769 7.89831C112.558 8.88499 113.334 9.7752 113.861 10.2006L115.04 11.1522L115.869 9.88483C116.847 8.41577 118.325 6.49504 119.311 5.23647ZM109.822 3C109.822 3 110.646 9.17003 110.576 10.7794C107.156 9.95937 100.836 7.10897 100.836 7.10897C100.836 7.10897 103.577 12.3011 104.586 14.9629C102.731 14.9498 96.5213 14.6121 94.3024 14.4762C96.096 15.8356 103.586 21.247 103.586 21.247L93 23.2993C93 23.2993 100.529 25.1191 103.586 26.4391C102.257 27.5223 97.1309 30.7279 97.1309 30.7279C97.1309 30.7279 99.9857 30.6621 102.161 30.6621C102.744 30.6621 103.275 30.6665 103.696 30.6796C102.687 33.4555 101.126 36.4945 99.0122 40.0684C103.191 38.4415 106.77 37.218 110.05 36.398C110.041 37.3978 111.343 38.0468 112.655 38.0468C113.317 38.0468 113.979 37.8802 114.475 37.5118C115.045 38.3582 116.733 38.6827 118.737 38.6827C122.798 38.6827 128.165 37.3408 128.213 36.2664C131.634 37.0865 135.375 38.3494 139.782 40.0684C137.778 36.6743 136.269 33.7712 135.261 31.1094C137.116 31.1225 139.128 31.2015 141.347 31.3374C139.554 29.978 137.988 28.7194 136.633 27.5179C139.786 26.1146 146 23.4528 146 23.4528C146 23.4528 140.172 21.0584 137.116 19.7385C138.444 18.6553 144.812 15.5637 144.812 15.5637L135.098 16.3662L140.019 5.17069C140.019 5.17069 132.02 9.82343 128.744 10.6435C128.757 9.13934 130.104 3.83758 130.104 3.83758C130.104 3.83758 125.802 8.42454 124.319 9.52524C122.587 6.97741 119.298 3.06139 119.298 3.06139C119.298 3.06139 116.356 6.66168 114.733 9.14372C113.396 8.06495 109.822 3 109.822 3Z" fill="#C73200"/>
<path d="M116.343 29.6272C114.676 29.6009 113.251 28.6624 112.431 27.0443C112.317 26.8206 112.089 26.6847 111.843 26.6847C111.8 26.6847 111.751 26.6891 111.707 26.6978C111.304 26.7812 110.918 26.825 110.558 26.825C109.186 26.825 108.125 26.1979 107.318 24.9043C107.226 24.7552 107.081 24.6499 106.91 24.6105C104.621 24.0711 102.937 22.2249 102.814 20.12C102.722 18.5238 103.529 17.0459 104.98 16.1689C105.261 15.9979 105.375 15.647 105.244 15.3445C104.98 14.7437 104.831 14.121 104.801 13.4983C104.731 12.0906 105.222 10.7487 106.191 9.7182C107.213 8.63066 108.633 8.0255 110.186 8.01234H110.238C110.844 8.01234 111.449 8.10882 112.045 8.30177C112.111 8.32369 112.181 8.33246 112.247 8.33246C112.501 8.33246 112.742 8.18337 112.852 7.93779C113.69 5.99952 115.685 4.73218 117.934 4.70587H118.009C120.162 4.70587 122.07 5.82849 122.995 7.63521C123.078 7.79747 123.223 7.91587 123.394 7.96849C123.455 7.98603 123.517 7.9948 123.578 7.9948C123.692 7.9948 123.806 7.9641 123.907 7.9071C125.065 7.23615 126.389 6.87218 127.744 6.85902H127.823C129.849 6.85902 131.744 7.63083 133.024 8.98148C134.116 10.1304 134.669 11.6039 134.59 13.1299C134.546 13.9719 134.313 14.7832 133.897 15.5506C133.726 15.8663 133.84 16.2566 134.151 16.4364C135.747 17.3441 136.642 18.8921 136.537 20.5717C136.379 23.1677 133.84 25.277 130.875 25.277H130.81C130.621 25.277 130.437 25.2639 130.253 25.2463C130.231 25.2463 130.209 25.2419 130.187 25.2419C129.884 25.2419 129.621 25.4481 129.547 25.7462C129.029 27.8775 126.837 29.4211 124.333 29.4211H124.24C122.999 29.4035 121.802 29.0045 120.868 28.2985C120.75 28.2108 120.609 28.1669 120.474 28.1669C120.32 28.1669 120.162 28.2195 120.039 28.3292C119.079 29.1711 117.803 29.6316 116.435 29.6316L116.343 29.6272Z" fill="url(#paint0_linear_1_72)"/>
<path d="M118.005 5.35926C119.877 5.35926 121.605 6.36786 122.407 7.92901C122.574 8.24913 122.863 8.49032 123.21 8.59118C123.333 8.62626 123.455 8.6438 123.583 8.6438C123.811 8.6438 124.043 8.58241 124.245 8.46401C125.302 7.85007 126.516 7.5168 127.757 7.50364H127.832C129.678 7.50364 131.402 8.20089 132.559 9.41999C133.524 10.4374 134.015 11.7354 133.945 13.0817C133.906 13.8228 133.699 14.5463 133.331 15.226C132.989 15.8531 133.213 16.6425 133.835 16.9977C135.208 17.7826 135.98 19.0982 135.892 20.5234C135.756 22.7774 133.511 24.6148 130.888 24.6148H130.831C130.665 24.6148 130.498 24.6061 130.336 24.5885C130.292 24.5841 130.248 24.5841 130.204 24.5841C129.604 24.5841 129.073 24.9964 128.928 25.5884C128.481 27.4258 126.556 28.7589 124.35 28.7589H124.267C123.166 28.7414 122.105 28.3905 121.28 27.7678C121.044 27.5924 120.767 27.5047 120.487 27.5047C120.175 27.5047 119.868 27.6143 119.618 27.8292C118.781 28.5659 117.654 28.9694 116.448 28.9694H116.369C114.935 28.9475 113.751 28.1581 113.036 26.7461C112.808 26.2988 112.352 26.0225 111.861 26.0225C111.769 26.0225 111.681 26.0313 111.589 26.0532C111.229 26.1278 110.892 26.1672 110.576 26.1672C109.431 26.1672 108.581 25.6541 107.897 24.5534C107.712 24.2596 107.419 24.0491 107.081 23.9658C105.073 23.4922 103.595 21.896 103.489 20.0761C103.411 18.7299 104.103 17.4757 105.34 16.7258C105.906 16.3837 106.129 15.6777 105.862 15.0726C105.629 14.5463 105.498 14.0026 105.472 13.4544C105.41 12.2265 105.84 11.0557 106.686 10.1611C107.585 9.20511 108.839 8.6745 110.212 8.66134H110.256C110.791 8.66134 111.33 8.74905 111.861 8.91569C111.992 8.95954 112.128 8.97708 112.264 8.97708C112.777 8.97708 113.26 8.6745 113.47 8.18335C114.207 6.48626 115.965 5.37241 117.956 5.3461L118.005 5.35926ZM118.005 4.04369C117.978 4.04369 117.952 4.04369 117.921 4.04369C115.334 4.07438 113.15 5.57852 112.247 7.67466C111.611 7.46856 110.94 7.35454 110.238 7.35454C110.221 7.35454 110.203 7.35454 110.181 7.35454C106.664 7.38524 103.972 10.183 104.143 13.529C104.182 14.2657 104.358 14.9629 104.643 15.6076C103.047 16.5767 102.051 18.2606 102.161 20.1594C102.305 22.6152 104.257 24.6631 106.765 25.2507C107.559 26.5224 108.739 27.4828 110.563 27.4828C110.958 27.4828 111.387 27.4389 111.848 27.3381C112.76 29.1404 114.374 30.2543 116.334 30.2806C116.369 30.2806 116.4 30.2806 116.435 30.2806C118.009 30.2806 119.434 29.7236 120.474 28.8159C121.487 29.5789 122.793 30.0482 124.232 30.0701C124.267 30.0701 124.297 30.0701 124.333 30.0701C127.179 30.0701 129.604 28.2941 130.187 25.8909C130.389 25.9129 130.595 25.9216 130.801 25.926C130.823 25.926 130.849 25.926 130.875 25.926C134.182 25.926 137.01 23.5799 137.194 20.6024C137.317 18.6115 136.221 16.8486 134.476 15.8531C134.923 15.0287 135.199 14.1166 135.247 13.1518C135.449 9.3279 132.121 6.18807 127.823 6.18807C127.792 6.18807 127.766 6.18807 127.735 6.18807C126.205 6.20122 124.78 6.62221 123.574 7.32384C122.583 5.38557 120.469 4.04369 118.005 4.04369Z" fill="#8F8F8F"/>
<path d="M119.491 54.9563C112.672 54.9563 106.436 52.9216 101.924 49.2292C97.109 45.2825 94.4121 39.5861 94.0963 32.71H144.886C144.566 39.5071 141.869 45.1728 137.054 49.1459C132.511 52.8953 126.275 54.9563 119.491 54.9563Z" fill="url(#paint1_linear_1_72)"/>
<path d="M143.948 33.587C142.812 47.7251 131.046 54.0793 119.487 54.0793C112.87 54.0793 106.831 52.1147 102.477 48.5495C98.0781 44.9448 95.5215 39.7965 95.0304 33.587H143.948ZM145.79 31.8329H93.1886C93.4517 48.0276 105.972 55.8334 119.487 55.8334C133.007 55.8334 145.526 47.8084 145.79 31.8329Z" fill="#EB8F00"/>
<path d="M128.367 16.1426C128.367 16.1426 128.406 16.1557 128.481 16.1864C128.547 16.2215 128.656 16.2478 128.775 16.3443C128.902 16.4364 129.042 16.5548 129.174 16.7126C129.235 16.7916 129.305 16.8793 129.376 16.9758C129.437 17.0722 129.498 17.1819 129.555 17.2959C129.775 17.7563 129.906 18.3659 129.854 19.0017C129.832 19.3219 129.761 19.6464 129.652 19.9621C129.59 20.12 129.538 20.2822 129.454 20.4313C129.415 20.5059 129.376 20.5848 129.332 20.6594L129.266 20.769L129.231 20.826L129.213 20.8523L129.178 20.9049C129.099 21.0058 129.034 21.1023 128.902 21.2601C128.784 21.4136 128.67 21.5057 128.556 21.6241C128.323 21.8434 128.069 22.0276 127.814 22.1767C127.301 22.4749 126.784 22.6371 126.328 22.6985C126.1 22.7336 125.885 22.7336 125.696 22.7292C125.512 22.7292 125.341 22.7029 125.205 22.681C125.074 22.6678 124.96 22.624 124.885 22.6108C124.811 22.5889 124.771 22.5757 124.771 22.5757L124.718 22.5538C124.683 22.5406 124.666 22.5012 124.679 22.4661C124.688 22.4485 124.701 22.4354 124.714 22.4266C124.714 22.4266 124.832 22.374 125.034 22.2819C125.24 22.1898 125.521 22.0407 125.85 21.8521C126.179 21.6636 126.551 21.4136 126.911 21.1067C127.091 20.9532 127.266 20.7822 127.429 20.598C127.595 20.4094 127.74 20.2252 127.885 20.0016C128.161 19.5981 128.367 19.1289 128.481 18.6772C128.599 18.2256 128.617 17.7826 128.582 17.4099C128.542 17.0415 128.459 16.7346 128.371 16.5372C128.336 16.4364 128.288 16.3574 128.262 16.3048C128.235 16.2522 128.218 16.2215 128.218 16.2215C128.2 16.1864 128.213 16.147 128.249 16.1294C128.266 16.1206 128.288 16.1206 128.306 16.125L128.367 16.1426Z" fill="#8F8F8F"/>
<path d="M117.698 22.6415C117.698 22.6415 117.693 22.6853 117.685 22.7643C117.671 22.8388 117.671 22.9572 117.601 23.1063C117.535 23.2598 117.461 23.4308 117.325 23.6062C117.198 23.7816 117.031 23.9746 116.821 24.1368C116.4 24.4789 115.825 24.742 115.181 24.856C114.86 24.9086 114.523 24.9393 114.185 24.913C113.847 24.8999 113.501 24.8297 113.172 24.742C113.058 24.7069 112.874 24.6412 112.703 24.5798C112.545 24.5184 112.4 24.4438 112.256 24.3693C111.966 24.2246 111.707 24.0448 111.471 23.8562C111.001 23.4791 110.646 23.0449 110.405 22.6371C110.282 22.4354 110.19 22.2293 110.116 22.0495C110.037 21.8741 109.993 21.703 109.953 21.5627C109.909 21.4312 109.901 21.304 109.883 21.2294C109.87 21.1505 109.866 21.1066 109.866 21.1066L109.861 21.0496C109.857 21.0102 109.888 20.9795 109.927 20.9795C109.949 20.9795 109.966 20.9882 109.98 21.0014C109.98 21.0014 110.366 21.3873 111.01 21.8785C111.646 22.374 112.576 22.9528 113.606 23.2335C114.619 23.5492 115.733 23.5098 116.474 23.2291C116.847 23.0932 117.132 22.9265 117.307 22.7818C117.395 22.716 117.465 22.6503 117.509 22.602C117.553 22.5582 117.579 22.5319 117.579 22.5319C117.606 22.5055 117.649 22.5055 117.68 22.5319C117.693 22.545 117.702 22.5669 117.698 22.5889V22.6415Z" fill="#8F8F8F"/>
<path d="M132.16 11.9854C132.16 11.9854 132.204 11.9985 132.283 12.016C132.358 12.0424 132.476 12.0599 132.612 12.1564C132.757 12.2441 132.919 12.3493 133.072 12.5116C133.23 12.6694 133.401 12.8668 133.533 13.1036C133.813 13.5772 133.993 14.1999 134.011 14.8665C134.02 15.1953 133.998 15.5418 133.923 15.8794C133.862 16.2215 133.739 16.5592 133.603 16.8793C133.55 16.9889 133.458 17.1643 133.371 17.3266C133.287 17.4801 133.191 17.616 133.094 17.7476C132.906 18.0194 132.686 18.2562 132.463 18.4667C132.011 18.8877 131.524 19.1859 131.081 19.3789C130.858 19.4753 130.643 19.5411 130.45 19.5894C130.261 19.6464 130.082 19.6683 129.937 19.6902C129.797 19.7165 129.669 19.7121 129.59 19.7165C129.512 19.7209 129.463 19.7165 129.463 19.7165L129.406 19.7121C129.367 19.7078 129.34 19.6771 129.34 19.6376C129.34 19.6157 129.354 19.5981 129.367 19.5894C129.367 19.5894 129.814 19.2517 130.41 18.6728C131.007 18.1028 131.735 17.2389 132.169 16.2303C132.401 15.7391 132.55 15.2041 132.621 14.6998C132.686 14.1911 132.669 13.7087 132.581 13.3141C132.498 12.9194 132.371 12.5993 132.248 12.3976C132.195 12.2967 132.134 12.2178 132.094 12.1651C132.055 12.1125 132.033 12.0818 132.033 12.0818C132.011 12.0511 132.015 12.0073 132.046 11.9854C132.064 11.9722 132.086 11.9678 132.103 11.9722L132.16 11.9854Z" fill="#8F8F8F"/>
<path d="M144.11 25.4875C144.193 25.2683 144.242 25.0358 144.242 24.7903C144.242 23.694 143.351 22.8038 142.255 22.8038C141.347 22.8038 140.589 23.4177 140.352 24.2509C139.589 24.5272 139.041 25.2507 139.041 26.1102C139.041 27.2065 139.931 28.0967 141.027 28.0967C141.154 28.0967 141.277 28.0836 141.4 28.0573C141.672 28.1976 141.974 28.2853 142.303 28.2853C143.4 28.2853 144.29 27.3951 144.29 26.2988C144.29 26.0138 144.224 25.7375 144.11 25.4875Z" fill="#FFEA5C" stroke="#FF8800" stroke-width="2" stroke-miterlimit="10" stroke-linecap="round" stroke-linejoin="round"/>
<path d="M138.58 8.38504C138.014 8.38504 137.506 8.043 137.287 7.51677C137.234 7.39398 137.133 7.30189 137.001 7.26242C136.567 7.13964 136.23 6.82828 136.072 6.41607C135.8 5.69251 136.164 4.88124 136.887 4.60497C137.045 4.54357 137.212 4.51288 137.379 4.51288C137.944 4.51288 138.457 4.85493 138.672 5.38116C138.725 5.50394 138.826 5.59603 138.957 5.6355C139.391 5.76267 139.729 6.06964 139.887 6.48185C140.159 7.20542 139.795 8.01668 139.071 8.29295C138.913 8.35435 138.747 8.38504 138.58 8.38504Z" fill="#5C5CFF"/>
<path d="M137.383 4.95581C137.773 4.95581 138.124 5.19262 138.273 5.55221C138.374 5.79778 138.585 5.98634 138.839 6.06089C139.137 6.1486 139.37 6.35909 139.479 6.63975C139.668 7.13966 139.413 7.69659 138.918 7.88515C138.808 7.92462 138.694 7.94655 138.58 7.94655C138.19 7.94655 137.839 7.70974 137.69 7.35015C137.589 7.10458 137.379 6.91602 137.124 6.84147C136.826 6.75376 136.594 6.54327 136.484 6.26262C136.295 5.7627 136.55 5.20577 137.045 5.01721C137.155 4.97335 137.269 4.95581 137.383 4.95581ZM137.383 4.07877C137.168 4.07877 136.949 4.11823 136.734 4.19717C135.782 4.55676 135.3 5.62237 135.664 6.57397C135.879 7.13966 136.339 7.52995 136.879 7.68782C137.173 8.39384 137.852 8.82798 138.58 8.82798C138.795 8.82798 139.014 8.78851 139.229 8.70958C140.181 8.34999 140.663 7.28438 140.304 6.33278C140.089 5.76708 139.628 5.3768 139.089 5.21893C138.791 4.50852 138.107 4.07877 137.383 4.07877Z" fill="#3939A1"/>
<path d="M99.9462 22.9967C99.9638 22.9046 99.9725 22.8081 99.9725 22.7117C99.9725 21.8785 99.2972 21.1987 98.4596 21.1987C97.6264 21.1987 96.9467 21.8741 96.9467 22.7117C96.9467 22.9397 96.9993 23.1502 97.0871 23.3431C96.21 23.387 95.4908 24.0842 95.4382 24.9832C95.3812 25.9436 96.1179 26.768 97.0783 26.825C97.6703 26.8601 98.2097 26.5926 98.5517 26.1585C98.7841 26.2988 99.056 26.3865 99.3454 26.404C100.306 26.461 101.13 25.7243 101.187 24.7639C101.24 23.9439 100.705 23.2203 99.9462 22.9967Z" fill="#45F9FF" stroke="#24C9F2" stroke-width="3.1257" stroke-miterlimit="10"/>
<path d="M97.9509 10.8584C99.1619 10.8584 100.144 9.97486 100.144 8.88501C100.144 7.79515 99.1619 6.91165 97.9509 6.91165C96.74 6.91165 95.7583 7.79515 95.7583 8.88501C95.7583 9.97486 96.74 10.8584 97.9509 10.8584Z" fill="#4BFF17" stroke="#33AF00" stroke-width="2.1247" stroke-miterlimit="10" stroke-linecap="round" stroke-linejoin="round"/>
<path d="M141.11 14.292C142.321 14.292 143.303 13.4085 143.303 12.3186C143.303 11.2288 142.321 10.3453 141.11 10.3453C139.9 10.3453 138.918 11.2288 138.918 12.3186C138.918 13.4085 139.9 14.292 141.11 14.292Z" fill="#FF17C8" stroke="#B9008D" stroke-width="2.1247" stroke-miterlimit="10" stroke-linecap="round" stroke-linejoin="round"/>
<path d="M129.415 42.7653C134.029 42.7653 137.769 39.0252 137.769 34.4115C137.769 29.7977 134.029 26.0576 129.415 26.0576C124.801 26.0576 121.061 29.7977 121.061 34.4115C121.061 39.0252 124.801 42.7653 129.415 42.7653Z" fill="white"/>
<path d="M129.415 27.8117C133.055 27.8117 136.015 30.7717 136.015 34.4115C136.015 38.0512 133.055 41.0113 129.415 41.0113C125.775 41.0113 122.815 38.0512 122.815 34.4115C122.815 30.7717 125.775 27.8117 129.415 27.8117ZM129.415 26.0576C124.802 26.0576 121.061 29.7982 121.061 34.4115C121.061 39.0247 124.802 42.7653 129.415 42.7653C134.028 42.7653 137.769 39.0247 137.769 34.4115C137.769 29.7982 134.033 26.0576 129.415 26.0576Z" fill="#EB8F00"/>
<path d="M129.415 31.4427C127.801 31.4427 126.49 32.403 126.49 34.4115C126.49 36.4243 127.801 37.3803 129.415 37.3803C131.029 37.3803 132.34 36.4199 132.34 34.4115C132.34 32.3986 131.033 31.4427 129.415 31.4427Z" fill="#242424"/>
<path d="M109.677 42.7303C114.291 42.7303 118.031 38.9901 118.031 34.3764C118.031 29.7626 114.291 26.0225 109.677 26.0225C105.063 26.0225 101.323 29.7626 101.323 34.3764C101.323 38.9901 105.063 42.7303 109.677 42.7303Z" fill="white"/>
<path d="M109.677 27.7766C113.317 27.7766 116.277 30.7366 116.277 34.3764C116.277 38.0161 113.317 40.9762 109.677 40.9762C106.037 40.9762 103.077 38.0161 103.077 34.3764C103.077 30.7366 106.037 27.7766 109.677 27.7766ZM109.677 26.0225C105.064 26.0225 101.323 29.7631 101.323 34.3764C101.323 38.9896 105.064 42.7303 109.677 42.7303C114.29 42.7303 118.031 38.9896 118.031 34.3764C118.031 29.7631 114.29 26.0225 109.677 26.0225Z" fill="#EB8F00"/>
<path d="M109.677 31.4076C108.063 31.4076 106.752 32.3679 106.752 34.3764C106.752 36.3892 108.063 37.3452 109.677 37.3452C111.291 37.3452 112.602 36.3848 112.602 34.3764C112.598 32.3635 111.291 31.4076 109.677 31.4076Z" fill="#242424"/>
<path d="M125.609 47.4488C125.609 49.9045 122.894 51.3473 119.548 51.3473C116.202 51.3473 113.488 49.9045 113.488 47.4488C113.488 44.9931 116.202 42.3224 119.548 42.3224C122.894 42.3224 125.609 44.9931 125.609 47.4488Z" fill="#242424"/>
<path d="M5.76 56.064C6.74133 51.3707 7.68 46.7413 8.576 42.176C8.96 40.256 9.344 38.2507 9.728 36.16C10.112 34.0693 10.4747 32.0213 10.816 30.016C11.2 27.968 11.52 26.0053 11.776 24.128C12.0747 22.208 12.3307 20.4587 12.544 18.88C11.5627 18.752 10.56 18.7093 9.536 18.752C8.55467 18.7947 7.57333 18.6667 6.592 18.368C6.63467 17.6853 6.656 16.896 6.656 16C6.656 15.104 6.67733 14.208 6.72 13.312C6.76267 12.3307 6.80533 11.2853 6.848 10.176C7.95733 10.2613 9.06667 10.3253 10.176 10.368C11.2853 10.4107 12.3947 10.432 13.504 10.432C15.68 10.432 17.7707 10.3893 19.776 10.304C21.824 10.176 23.7013 10.048 25.408 9.92C27.1573 9.74933 28.864 9.55733 30.528 9.344L29.824 12.8C29.6107 13.7813 29.3973 14.784 29.184 15.808C29.0133 16.832 28.8427 17.7067 28.672 18.432C27.7333 18.688 26.7733 18.88 25.792 19.008C24.8533 19.0933 23.9147 19.2213 22.976 19.392C22.6773 20.8427 22.3573 22.464 22.016 24.256C21.6747 26.0053 21.3333 27.84 20.992 29.76C20.6933 31.6373 20.3947 33.5573 20.096 35.52C19.7973 37.4827 19.4987 39.36 19.2 41.152C18.5173 45.376 17.8773 49.7493 17.28 54.272L5.76 56.064ZM23.6995 56.064L32.0835 10.56L52.3075 8.832C52.0088 9.77066 51.7528 10.7307 51.5395 11.712C51.3262 12.5227 51.1128 13.376 50.8995 14.272C50.7288 15.1253 50.5795 15.8933 50.4515 16.576C50.0248 16.6187 49.4062 16.6613 48.5955 16.704C47.8275 16.704 46.9955 16.7253 46.0995 16.768C45.2035 16.768 44.2862 16.768 43.3475 16.768C42.4515 16.768 41.6622 16.768 40.9795 16.768L38.7395 28.224C40.0622 28.1387 41.2995 28.0747 42.4515 28.032C43.3902 27.9893 44.3502 27.968 45.3315 27.968C46.3128 27.968 47.0382 27.9467 47.5075 27.904C47.3368 29.0987 47.1662 30.272 46.9955 31.424C46.8675 32.576 46.6968 33.7493 46.4835 34.944C46.0568 34.9867 45.3528 35.0293 44.3715 35.072C43.4328 35.072 42.4728 35.0933 41.4915 35.136C40.3822 35.1787 39.1662 35.2213 37.8435 35.264L35.6675 47.04L45.0115 45.568L44.3715 52.864L23.6995 56.064ZM52.872 54.464C51.6773 54.6773 50.376 54.9333 48.968 55.232C47.56 55.5307 46.3227 55.808 45.256 56.064C45.768 54.2293 46.2587 52.1813 46.728 49.92C47.24 47.616 47.7307 45.2053 48.2 42.688C48.712 40.1707 49.1813 37.632 49.608 35.072C50.0773 32.4693 50.5253 29.9733 50.952 27.584C51.848 21.9093 52.744 16.0427 53.64 9.984L75.08 8.896L73.224 16.768H63.176L61.192 28.16C62.5147 28.1173 63.7733 28.096 64.968 28.096C65.9493 28.096 66.952 28.096 67.976 28.096C69 28.096 69.7893 28.0747 70.344 28.032C70.216 29.2267 70.0453 30.4 69.832 31.552C69.6613 32.704 69.4907 33.856 69.32 35.008C68.7653 35.008 67.976 35.008 66.952 35.008C65.928 34.9653 64.8613 34.9227 63.752 34.88C62.6853 34.8373 61.4693 34.7947 60.104 34.752L57.16 53.632C55.7093 53.888 54.28 54.1653 52.872 54.464ZM84.4765 53.952C83.1538 53.952 81.7458 53.9947 80.2525 54.08C78.8018 54.1653 77.3298 54.2933 75.8365 54.464C74.3432 54.6347 72.8712 54.8693 71.4205 55.168C70.0125 55.424 68.7325 55.744 67.5805 56.128C67.8365 54.208 68.1352 52.0747 68.4765 49.728C68.8178 47.3813 69.2018 44.9493 69.6285 42.432C70.0978 39.9147 70.5458 37.376 70.9725 34.816C71.4418 32.256 71.9112 29.8027 72.3805 27.456C73.4472 21.8667 74.5778 16.1707 75.7725 10.368L86.9725 8.896C85.8205 13.8453 84.7112 18.6667 83.6445 23.36C83.1752 25.3653 82.7058 27.456 82.2365 29.632C81.7672 31.7653 81.3192 33.856 80.8925 35.904C80.4658 37.952 80.0818 39.936 79.7405 41.856C79.3992 43.776 79.1218 45.4827 78.9085 46.976C79.9752 46.8907 81.1058 46.848 82.3005 46.848C83.5378 46.8053 84.6258 46.784 85.5645 46.784C85.6072 47.5947 85.6712 48.4053 85.7565 49.216C85.8418 49.984 85.9272 50.688 86.0125 51.328C86.1405 51.968 86.2258 52.544 86.2685 53.056C86.3538 53.5253 86.4178 53.8453 86.4605 54.016C86.1192 54.016 85.7778 54.016 85.4365 54.016C85.1378 53.9733 84.8178 53.952 84.4765 53.952Z" fill="black"/>
<defs>
<linearGradient id="paint0_linear_1_72" x1="108.98" y1="8.33058" x2="132.331" y2="26.9834" gradientUnits="userSpaceOnUse">
<stop stop-color="#F0F0F0"/>
<stop offset="0.3024" stop-color="#E2E2E2"/>
<stop offset="0.869" stop-color="#BEBEBE"/>
<stop offset="0.9987" stop-color="#B5B5B5"/>
</linearGradient>
<linearGradient id="paint1_linear_1_72" x1="119.489" y1="34.4462" x2="119.489" y2="54.9427" gradientUnits="userSpaceOnUse">
<stop offset="0.1" stop-color="#F6A323"/>
<stop offset="0.3912" stop-color="#FAC12B"/>
<stop offset="0.6813" stop-color="#FDD831"/>
<stop offset="0.8622" stop-color="#FEE133"/>
</linearGradient>
</defs>
</svg>
